Patient4_TMGait_0pt3_03_right_28_EMG.mot
version=1
nRows=13
nColumns=33
inDegrees=no
endheader
time	1LAddLong	2LGlutMax	3LGlutMed	4LIliopsoas	5LSemiMemb	6LBicFemLong	7LRecFem	8LVastMed	9LVastLat	10LGasMed	11LTibAnt	12lTibPost	13LPeroneusLong	14LSol	15LExtDigLong	16LFlexDigLong	17RAddLong	18RGlutMax	19RGlutMed	20RIliopsoas	21RSemiMemb	22RBicFemLong	23RRecFem	24RVastMed	25RVastLat	26RGasMed	27RTibAnt	28RTibPost	29RPeroneusLong	30RSol	31RExtDigLong	32RFlexDigLong
54.215	0.005188	0.026093	0.112	0.002747	-0.015106	0.25818	-0.09491	-0.019836	0.14999	0.13825	0.007019	-0.04715	0.24185	0.040894	-0.06485	0.095825	0.17273	0.016937	0.049896	-0.00412	0.018463	-0.057373	0.024109	-0.11398	-0.023499	0.009003	-0.10895	-0.000763	0.016785	-0.27695	-0.000916	-0.009918
54.216	0.014191	0.013733	0.097198	0.016632	-0.003052	0.31448	0.030823	-0.010071	0.1886	0.19394	0.011139	-0.046539	-0.1416	0.37354	0.022888	0.023499	0.15259	0.001526	-0.052795	0.004272	0.003662	-0.080719	0.06546	-0.096283	-0.047913	0.012054	0.16953	-0.005646	-0.001984	-0.32059	-0.003052	-0.001678
54.217	0.020294	0.045776	0.066376	-0.01358	0.001984	0.36835	0.081635	-0.02594	0.13138	0.21042	0.019531	-0.017395	-0.24017	0.41245	0.023041	-0.005035	0.082703	0.053101	-0.18188	-0.033417	-0.010681	-0.080261	0.009308	-0.1561	-0.021515	0.006866	-0.3595	-0.002899	0.013275	-0.23025	-0.006714	-0.00824
54.218	0.012512	0.037994	0.04837	-0.018463	0.006256	0.30502	0.15717	-0.017548	-0.14832	0.06897	0.017395	-0.002441	-0.036316	0.40207	0.006866	0.000458	-0.021515	-0.010681	-0.0914	-0.007477	0.00351	-0.041504	0.002289	-0.098877	-0.021667	-0.006714	-0.64484	-0.008392	0.14114	-0.072479	0.000763	-0.003815
54.219	0.000305	0.078735	0.032196	0.001221	0.004272	0.32379	0.17471	0.012512	-0.18082	-0.19348	0.000153	0.002594	-0.019836	0.26886	0.041962	-0.006409	-0.11414	-0.017242	-0.14832	-0.041351	0.006104	-0.016785	-0.031128	-0.028839	-0.019989	-0.010529	-0.64972	-0.006561	-0.12131	0.030212	-0.003662	-0.006561
54.22	0.006561	0.12817	0	0.018463	0.015259	0.25146	0.097351	0.012665	-0.11932	-0.25375	-0.002136	-0.005493	0.12207	0.027313	0.015259	-0.011902	-0.11536	-0.019073	0.31097	-0.048676	0.018921	-0.015106	-0.019073	-0.043945	-0.029755	0.001526	-0.44098	-0.007935	-0.14679	-0.10239	0.00885	0
54.221	0.016785	0.18295	-0.063019	0.011902	0.03952	-0.041656	-0.059357	-0.001221	-0.023193	-0.1416	0.032806	0.001984	0.22201	-0.18768	0.02121	-0.020142	-0.092468	-0.000305	0.69839	-0.007477	0.030365	-0.00946	0.030823	-0.071106	-0.027924	-0.003815	-0.34271	-0.008698	0.14923	-0.073547	0.000305	-0.002747
54.222	0.023499	0.13596	-0.11581	0.029449	0.054474	-0.3717	-0.13031	-0.006561	-0.010986	0.027618	0.057678	-0.010223	0.093994	-0.13489	0.04776	-0.009003	-0.088501	-0.088043	1.25	-0.081329	0.024261	-0.009155	0.011444	-0.03418	-0.031128	-0.004272	-0.098267	-0.00885	0.065918	-0.002899	-0.001068	-0.00412
54.223	0.024719	0.14481	-0.071259	0.028229	0.053406	-0.3978	-0.21194	0.019531	-0.055084	0.038605	0.046692	0.006561	-0.37216	0.19928	0.07843	0.010223	-0.085602	-0.12756	0.93521	-0.12451	0.024567	-0.01358	0.003357	0.015106	-0.035248	-0.001984	-0.30121	-0.007935	-0.065002	0.019531	-0.004578	-0.010071
54.224	0.021973	0.14847	-0.1886	0.010529	0.015717	-0.11261	-0.34759	0.044861	0.11841	-0.018463	0.019379	0.014191	-0.30914	0.35568	0.032959	0.012207	-0.077515	-0.11139	0.37216	-0.12985	0.025177	-0.001068	0.011139	-0.004883	-0.022583	0.001526	-0.50919	-0.005798	-0.054321	0.013275	-0.004272	-0.008392
54.225	0.025177	0.15457	-0.13504	0.012207	-0.007019	0.034943	-0.31769	0.028381	0.26642	-0.036926	-0.001373	0.019684	-0.24078	0.25971	0.000305	0.004578	-0.081787	-0.054321	0.18936	-0.067139	0.020752	0.003204	-0.009155	-0.017548	-0.01358	0.005341	-0.36118	-0.010223	0.095825	-0.005951	-0.002899	-0.004578
54.226	0.027924	0.19775	-0.16708	0.021362	-0.00946	-0.023804	-0.31601	0.001068	0.31342	0.23468	-0.009918	-0.012207	0.13748	0.11276	-0.02243	-0.00061	-0.054626	-0.080414	-0.054779	-0.05127	0.023499	0.016327	-0.057068	-0.027008	0.01297	0.001831	-0.073853	0.000458	0.14816	-0.044098	0.001984	-0.008087
54.227	0.016479	0.19394	-0.044708	0.016022	0.037384	-0.051422	-0.26459	-0.029449	0.31662	-0.091858	-0.001678	-0.066986	0.73196	0.050354	0.056305	0.006104	-0.055084	-0.007019	-0.08606	0.030823	0.027313	0.011749	-0.06485	0.010529	-0.00412	-0.001526	-0.1738	-0.005035	-0.002594	0.015411	-0.002441	-0.007935
